P2
# feepv2.pgm
24 7
15
0  0  0  0  0  0  0  0  0  0  0  0  0  0  0  0  0  0  0  0  0  0  0  0
2  2  2  2  2  2  4  4  4  4  4  4  7  7  7  7  7  7 10 10 10 10 10 10
1  1  1  0  0  0  2  2  2  0  0  0  3  3  3  0  0  0  5  5  5  5  5  5
2  2  2  1  1  1  4  4  4  2  2  2  7  7  7  3  3  3 10 10 10 10 10 10
1  1  1  0  0  0  2  2  2  0  0  0  3  3  3  0  0  0  5  5  5  0  0  0
1  1  1  0  0  0  4  4  4  4  4  4  7  7  7  7  7  7  5  5  5  0  0  0
0  0  0  0  0  0  0  0  0  0  0  0  0  0  0  0  0  0  0  0  0  0  0  0